name processed_emg_signals
nRows=53
nColumns=7
 
endheader
time	RGLTMED	RRF	RADDLONG	RBF	RTA	RGM
1.9219999999999622	0.0121535565945355	0.0211587330375476	0.0141227427477436	0.4486090340851186	0.9099670424424132	0.1236067465188845
1.922999999999962	0.0121299811498874	0.0210861927918316	0.0141126996250055	0.4542197878916679	0.9120911917019232	0.1227801491482762
1.923999999999962	0.0121081940392056	0.0210138569822037	0.0141036901103167	0.459634988382863	0.9140042886062923	0.1219499373474748
1.9249999999999619	0.0120882078215886	0.0209417310831573	0.0140957066226841	0.4648475575546944	0.9156983027356184	0.1211154019431261
1.9259999999999617	0.0120700311821223	0.0208698224962314	0.0140887410410272	0.4698506185440894	0.917165391933913	0.1202758523709162
1.9269999999999616	0.01205366892693	0.0207981406907942	0.0140827847059575	0.4746375110709111	0.9183979265304046	0.1194306195067329
1.9279999999999615	0.0120391219871077	0.0207266973357053	0.0140778284213104	0.4792018067524367	0.9193885134425668	0.118579058379108
1.9289999999999614	0.0120263874316165	0.0206555064214348	0.0140738624555092	0.4835373242461779	0.9201300200996156	0.1177205507586363
1.9299999999999613	0.0120154584891688	0.0205845843722722	0.0140708765428173	0.4876381441751856	0.920615598122817	0.1168545076216276
1.9309999999999612	0.0120063245791051	0.0205139501483126	0.0140688598845019	0.4914986237882361	0.9208387066968704	0.1159803714863672
1.931999999999961	0.0119989713512192	0.0204436253369828	0.0140678011499142	0.4951134113055962	0.9207931355651818	0.1150976186210399
1.932999999999961	0.0119933807344538	0.0203736342339839	0.0140676884774615	0.4984774598993483	0.9204730275811102	0.1142057611227201
1.9339999999999609	0.0119895309943534	0.0203040039136548	0.0140685094754157	0.5015860412556076	0.919872900747318	0.113304348866955
1.9349999999999608	0.0119873967991502	0.0202347642888913	0.0140702512224796	0.5044347586643874	0.9189876696762854	0.112392971327413
1.9359999999999606	0.0119869492943395	0.0201659481608121	0.0140729002679958	0.5070195595814506	0.9178126664068094	0.1114712592648555
1.9369999999999605	0.011988156185594	0.0200975912583793	0.014076442631662	0.5093367476052677	0.9163436605138262	0.1105388862843795
1.9379999999999604	0.0119909818298502	0.0200297322681511	0.0140808638025898	0.51138299381138	0.914576878451684	0.1095955702595377
1.9389999999999603	0.0119953873343854	0.0199624128543034	0.0140861487375373	0.5131553473862311	0.9125090220731122	0.1086410746216186
1.9399999999999602	0.0120013306636787	0.0198956776690143	0.0140922818581348	0.5146512455033828	0.9101372862671282	0.1076752095120991
1.94099999999996	0.0120087667538316	0.0198295743532669	0.0140992470469113	0.515868522388173	0.907459375659264	0.1066978327960611
1.94199999999996	0.0120176476342901	0.0197641535281184	0.0141070276419283	0.5168054175235429	0.9044735203172264	0.1057088509341788
1.9429999999999599	0.0120279225565821	0.0196994687764751	0.0141156064298454	0.5174605829593099	0.9011784904043364	0.1047082197106919
1.9439999999999598	0.0120395381297492	0.019635576615432	0.0141249656372959	0.5178330896967946	0.8975736097217345	0.1036959448145583
1.9449999999999597	0.0120524384621266	0.0195725364592394	0.01413508692052	0.5179224331278913	0.8936587680788042	0.1026720822707083
1.9459999999999595	0.0120665653090886	0.0195104105729771	0.0141459513532671	0.5177285375119547	0.889434432430261	0.1016367387180276
1.9469999999999594	0.0120818582263486	0.0194492640170077	0.0141575394130227	0.5172517594763083	0.8849016567181787	0.1005900715304681
1.9479999999999593	0.012098254728355	0.0193891645823007	0.014169830965643	0.516492890527785	0.8800620903576003	0.0995322887777138
1.9489999999999592	0.0121156904512907	0.0193301827167447	0.0141828052485	0.5154531585639074	0.8749179853053735	0.0984636490223037
1.949999999999959	0.0121340993201414	0.0192723914426086	0.0141964408522756	0.5141342283731646	0.8694722016547234	0.0973844609510813
1.950999999999959	0.012153413719264	0.0192158662653623	0.0142107157015757	0.5125382011145286	0.8637282117043277	0.0962950828402704
1.9519999999999589	0.0121735646658649	0.0191606850741063	0.014225607034578	0.5106676127671406	0.8576901024598392	0.0951959218553008
1.9529999999999588	0.0121944819857757	0.0191069280338711	0.0142410913819719	0.5085254315421668	0.851362576535438	0.0940874331885764
1.9539999999999587	0.0122160944909031	0.0190546774700335	0.0142571445454785	0.506115054249962	0.8447509514311962	0.0929701190403626
1.9549999999999585	0.0122383301577106	0.0190040177450642	0.0142737415762586	0.5034403016167806	0.8378611571690073	0.0918445274495777
1.9559999999999584	0.0122611163060951	0.0189550351277997	0.0142908567535199	0.5005054125472757	0.8306997322764933	0.0907112509823368
1.9569999999999583	0.0122843797780011	0.0189078176554125	0.0143084635636392	0.4973150373338275	0.8232738181150214	0.0895709252867609
1.9579999999999582	0.0123080471151226	0.0188624549882456	0.0143265346801052	0.4938742298228661	0.8155911515545414	0.0884242275229094
1.958999999999958	0.0123320447350197	0.0188190382576552	0.0143450419445952	0.4901884385609024	0.8076600560045073	0.0872718746768421
1.959999999999958	0.0123562991049602	0.0187776599069793	0.014363956349486	0.4862634969557258	0.7994894308172537	0.0861146217677908
1.9609999999999579	0.0123807369127836	0.0187384135257498	0.014383248022086	0.4821056124980297	0.7910887390884235	0.084953259957263
1.961999999999958	0.0124052852340639	0.0187013936772645	0.014402886210875	0.4777213550947212	0.7824679938885244	0.0837886145686968
1.962999999999958	0.012429871694836	0.0186666957196689	0.0144228392740182	0.4731176445685457	0.7736377429701319	0.0826215430260542
1.9639999999999578	0.0124544246291455	0.0186344156207476	0.0144430746704395	0.4683017373805928	0.7646090520059173	0.081452932719534
1.9649999999999577	0.012478873230675	0.0186046497667032	0.0144635589537153	0.4632812126331653	0.7553934864220799	0.0802836988063948
1.9659999999999576	0.0125031476977411	0.0185774947652789	0.0144842577690506	0.4580639574104746	0.7460030918983445	0.0791147819546745
1.9669999999999574	0.0125271793710538	0.0185530472436359	0.0145051358535674	0.4526581515140427	0.7364503736092448	0.077947146037388
1.9679999999999573	0.0125509008637982	0.0185314036414178	0.0145261570401118	0.447072251648883	0.7267482742831417	0.076781775784557
1.9689999999999572	0.0125742461837967	0.0185126599994447	0.0145472842647533	0.4413149751155364	0.7169101511564697	0.0756196744002151
1.9699999999999571	0.0125971508476609	0.0184969117444646	0.0145684795781178	0.4353952830618275	0.7069497519014296	0.0744618611513139
1.970999999999957	0.0126195519869318	0.0184842534704086	0.0145897041606683	0.4293223633467833	0.6968811896055281	0.0733093689352489
1.971999999999957	0.012641388446255	0.0184747787165911	0.0146109183420353	0.4231056130676447	0.6867189168810605	0.0721632418325076
1.9729999999999568	0.0126626008736708	0.0184685797433094	0.0146320816244772	0.4167546207993778	0.6764776991820721	0.0710245326507378
1.9739999999999567	0.0126831318031154	0.0184657473053044	0.0146531527105315	0.4102791485945702	0.6661725874059523	0.0698943004663212
